REM MD5 678eb5127f53ff4f5075e6d84c711c09
FILE "Treasures of the Deep (Italy).bin" BINARY
  TRACK 01 MODE2/2352
    INDEX 01 00:00:00
  TRACK 02 AUDIO
    INDEX 00 42:44:60
    INDEX 01 42:46:60
  TRACK 03 AUDIO
    INDEX 00 45:18:40
    INDEX 01 45:20:40
REM LEADOUT 47:15:70
